<?xml version="1.0" encoding="UTF-8"?>
<svg xmlns="http://www.w3.org/2000/svg" xmlns:xlink="http://www.w3.org/1999/xlink" width="1200.0px" height="300.0px" viewBox="0 0 1200.0 300.0" version="1.1">

<defs>
<!-- polycosvg ratio="1.000000" offsetx="0.000000" offsety="0.000000" / -->
</defs><g>
<path style="fill:rgb(12.156863%,56.078434%,34.11765%);fill-rule:evenodd;stroke:none;" name="Path No.0" d="M 10.0 250.0 C 13.326405 250.0 16.673628 250.0 20.0 250.0 C 20.0 260.00586 20.0 269.99414 20.0 280.0 C 23.326405 280.0 26.673628 280.0 30.0 280.0 C 30.0 283.32642 30.0 286.6736 30.0 290.0 C 53.329407 290.0 76.68126 290.0 100.0 290.0 C 100.0 286.67358 100.0 283.3264 100.0 280.0 C 96.67359 280.0 93.32637 280.0 90.0 280.0 C 90.0 266.66943 90.0 253.3199 90.0 240.0 C 86.67359 240.0 83.32637 240.0 80.0 240.0 C 80.0 233.33087 80.0 226.6638 80.0 220.0 C 86.669136 220.0 93.3362 220.0 100.0 220.0 C 100.0 213.33087 100.0 206.6638 100.0 200.0 C 96.67359 200.0 93.32637 200.0 90.0 200.0 C 90.0 193.33087 90.0 186.6638 90.0 180.0 C 86.67359 180.0 83.32637 180.0 80.0 180.0 C 80.0 173.33087 80.0 166.6638 80.0 160.0 C 76.67359 160.0 73.32637 160.0 70.0 160.0 C 70.0 166.66913 70.0 173.3362 70.0 180.0 C 66.67359 180.0 63.326374 180.0 60.0 180.0 C 60.0 183.3264 60.0 186.67363 60.0 190.0 C 56.673595 190.0 53.326374 190.0 50.0 190.0 C 50.0 196.66913 50.0 203.3362 50.0 210.0 C 46.673595 210.0 43.326374 210.0 40.0 210.0 C 40.0 213.3264 40.0 216.67363 40.0 220.0 C 36.673595 220.0 33.326374 220.0 30.0 220.0 C 30.0 230.00836 30.0 239.99164 30.0 250.0 C 26.673595 250.0 23.326372 250.0 20.0 250.0 C 20.0 233.3347 20.0 216.65997 20.0 200.0 C 16.673595 200.0 13.326373 200.0 10.0 200.0 C 10.0 216.68187 10.0 233.3312 10.0 250.0 Z M 20.0 200.0 C 23.326405 200.0 26.673628 200.0 30.0 200.0 C 30.0 193.33087 30.0 186.6638 30.0 180.0 C 33.326405 180.0 36.673626 180.0 40.0 180.0 C 40.0 176.6736 40.0 173.32637 40.0 170.0 C 36.673595 170.0 33.326374 170.0 30.0 170.0 C 30.0 173.3264 30.0 176.67363 30.0 180.0 C 26.673595 180.0 23.326372 180.0 20.0 180.0 C 20.0 186.66763 20.0 193.3343 20.0 200.0 Z M 100.0 190.0 C 103.33172 190.0 106.67895 190.0 110.0 190.0 C 110.0 186.66827 110.0 183.32106 110.0 180.0 C 106.663155 180.0 103.32555 180.0 100.0 180.0 C 100.0 183.33685 100.0 186.67445 100.0 190.0 Z M 310.0 250.0 C 313.32642 250.0 316.6736 250.0 320.0 250.0 C 320.0 260.00586 320.0 269.99414 320.0 280.0 C 323.32642 280.0 326.6736 280.0 330.0 280.0 C 330.0 283.32642 330.0 286.6736 330.0 290.0 C 353.3294 290.0 376.68127 290.0 400.0 290.0 C 400.0 286.67358 400.0 283.3264 400.0 280.0 C 396.67358 280.0 393.3264 280.0 390.0 280.0 C 390.0 266.66943 390.0 253.3199 390.0 240.0 C 386.67358 240.0 383.3264 240.0 380.0 240.0 C 380.0 233.33087 380.0 226.6638 380.0 220.0 C 386.66913 220.0 393.3362 220.0 400.0 220.0 C 400.0 213.33087 400.0 206.6638 400.0 200.0 C 396.67358 200.0 393.3264 200.0 390.0 200.0 C 390.0 193.33087 390.0 186.6638 390.0 180.0 C 386.67358 180.0 383.3264 180.0 380.0 180.0 C 380.0 173.33087 380.0 166.6638 380.0 160.0 C 376.67358 160.0 373.3264 160.0 370.0 160.0 C 370.0 166.66913 370.0 173.3362 370.0 180.0 C 366.67358 180.0 363.3264 180.0 360.0 180.0 C 360.0 183.3264 360.0 186.67363 360.0 190.0 C 356.67358 190.0 353.3264 190.0 350.0 190.0 C 350.0 196.66913 350.0 203.3362 350.0 210.0 C 346.67358 210.0 343.3264 210.0 340.0 210.0 C 340.0 213.3264 340.0 216.67363 340.0 220.0 C 336.67358 220.0 333.3264 220.0 330.0 220.0 C 330.0 230.00836 330.0 239.99164 330.0 250.0 C 326.67358 250.0 323.3264 250.0 320.0 250.0 C 320.0 233.3347 320.0 216.65997 320.0 200.0 C 316.67358 200.0 313.3264 200.0 310.0 200.0 C 310.0 216.68187 310.0 233.3312 310.0 250.0 Z M 320.0 200.0 C 323.32642 200.0 326.6736 200.0 330.0 200.0 C 330.0 193.33087 330.0 186.6638 330.0 180.0 C 333.32642 180.0 336.6736 180.0 340.0 180.0 C 340.0 176.6736 340.0 173.32637 340.0 170.0 C 336.67358 170.0 333.3264 170.0 330.0 170.0 C 330.0 173.3264 330.0 176.67363 330.0 180.0 C 326.67358 180.0 323.3264 180.0 320.0 180.0 C 320.0 186.66763 320.0 193.3343 320.0 200.0 Z M 400.0 190.0 C 403.33173 190.0 406.67896 190.0 410.0 190.0 C 410.0 186.66827 410.0 183.32106 410.0 180.0 C 406.66315 180.0 403.32553 180.0 400.0 180.0 C 400.0 183.33685 400.0 186.67445 400.0 190.0 Z M 410.0 170.0 C 416.66913 170.0 423.3362 170.0 430.0 170.0 C 430.0 166.6736 430.0 163.32637 430.0 160.0 C 423.34006 160.0 416.6486 160.0 410.0 160.0 C 410.0 163.3361 410.0 166.6737 410.0 170.0 Z M 610.0 250.0 C 613.3264 250.0 616.67365 250.0 620.0 250.0 C 620.0 260.00586 620.0 269.99414 620.0 280.0 C 623.3264 280.0 626.67365 280.0 630.0 280.0 C 630.0 283.32642 630.0 286.6736 630.0 290.0 C 653.3294 290.0 676.6813 290.0 700.0 290.0 C 700.0 286.67358 700.0 283.3264 700.0 280.0 C 696.6736 280.0 693.32635 280.0 690.0 280.0 C 690.0 266.66943 690.0 253.3199 690.0 240.0 C 686.6736 240.0 683.32635 240.0 680.0 240.0 C 680.0 233.33087 680.0 226.6638 680.0 220.0 C 686.6691 220.0 693.3362 220.0 700.0 220.0 C 700.0 213.33087 700.0 206.6638 700.0 200.0 C 696.6736 200.0 693.32635 200.0 690.0 200.0 C 690.0 193.33087 690.0 186.6638 690.0 180.0 C 686.6736 180.0 683.32635 180.0 680.0 180.0 C 680.0 173.33087 680.0 166.6638 680.0 160.0 C 676.6736 160.0 673.32635 160.0 670.0 160.0 C 670.0 166.66913 670.0 173.3362 670.0 180.0 C 666.6736 180.0 663.32635 180.0 660.0 180.0 C 660.0 183.3264 660.0 186.67363 660.0 190.0 C 656.6736 190.0 653.32635 190.0 650.0 190.0 C 650.0 196.66913 650.0 203.3362 650.0 210.0 C 646.6736 210.0 643.32635 210.0 640.0 210.0 C 640.0 213.3264 640.0 216.67363 640.0 220.0 C 636.6736 220.0 633.32635 220.0 630.0 220.0 C 630.0 230.00836 630.0 239.99164 630.0 250.0 C 626.6736 250.0 623.32635 250.0 620.0 250.0 C 620.0 233.3347 620.0 216.65997 620.0 200.0 C 616.6736 200.0 613.32635 200.0 610.0 200.0 C 610.0 216.68187 610.0 233.3312 610.0 250.0 Z M 620.0 200.0 C 623.3264 200.0 626.67365 200.0 630.0 200.0 C 630.0 193.33087 630.0 186.6638 630.0 180.0 C 633.3264 180.0 636.67365 180.0 640.0 180.0 C 640.0 176.6736 640.0 173.32637 640.0 170.0 C 636.6736 170.0 633.32635 170.0 630.0 170.0 C 630.0 173.3264 630.0 176.67363 630.0 180.0 C 626.6736 180.0 623.32635 180.0 620.0 180.0 C 620.0 186.66763 620.0 193.3343 620.0 200.0 Z M 700.0 190.0 C 703.3317 190.0 706.67896 190.0 710.0 190.0 C 710.0 186.66827 710.0 183.32106 710.0 180.0 C 706.66315 180.0 703.32556 180.0 700.0 180.0 C 700.0 183.33685 700.0 186.67445 700.0 190.0 Z M 710.0 170.0 C 716.6691 170.0 723.3362 170.0 730.0 170.0 C 730.0 166.6736 730.0 163.32637 730.0 160.0 C 723.3401 160.0 716.6486 160.0 710.0 160.0 C 710.0 163.3361 710.0 166.6737 710.0 170.0 Z M 720.0 150.0 C 733.33057 150.0 746.6801 150.0 760.0 150.0 C 760.0 146.6736 760.0 143.32637 760.0 140.0 C 746.66656 140.0 733.32275 140.0 720.0 140.0 C 720.0 143.3361 720.0 146.6737 720.0 150.0 Z M 910.0 250.0 C 913.3264 250.0 916.67365 250.0 920.0 250.0 C 920.0 260.00586 920.0 269.99414 920.0 280.0 C 923.3264 280.0 926.67365 280.0 930.0 280.0 C 930.0 283.32642 930.0 286.6736 930.0 290.0 C 953.3294 290.0 976.6813 290.0 1000.0 290.0 C 1000.0 286.67358 1000.0 283.3264 1000.0 280.0 C 996.6736 280.0 993.32635 280.0 990.0 280.0 C 990.0 266.66943 990.0 253.3199 990.0 240.0 C 986.6736 240.0 983.32635 240.0 980.0 240.0 C 980.0 233.33087 980.0 226.6638 980.0 220.0 C 986.6691 220.0 993.3362 220.0 1000.0 220.0 C 1000.0 213.33087 1000.0 206.6638 1000.0 200.0 C 996.6736 200.0 993.32635 200.0 990.0 200.0 C 990.0 193.33087 990.0 186.6638 990.0 180.0 C 986.6736 180.0 983.32635 180.0 980.0 180.0 C 980.0 173.33087 980.0 166.6638 980.0 160.0 C 976.6736 160.0 973.32635 160.0 970.0 160.0 C 970.0 166.66913 970.0 173.3362 970.0 180.0 C 966.6736 180.0 963.32635 180.0 960.0 180.0 C 960.0 183.3264 960.0 186.67363 960.0 190.0 C 956.6736 190.0 953.32635 190.0 950.0 190.0 C 950.0 196.66913 950.0 203.3362 950.0 210.0 C 946.6736 210.0 943.32635 210.0 940.0 210.0 C 940.0 213.3264 940.0 216.67363 940.0 220.0 C 936.6736 220.0 933.32635 220.0 930.0 220.0 C 930.0 230.00836 930.0 239.99164 930.0 250.0 C 926.6736 250.0 923.32635 250.0 920.0 250.0 C 920.0 233.3347 920.0 216.65997 920.0 200.0 C 916.6736 200.0 913.32635 200.0 910.0 200.0 C 910.0 216.68187 910.0 233.3312 910.0 250.0 Z M 920.0 200.0 C 923.3264 200.0 926.67365 200.0 930.0 200.0 C 930.0 193.33087 930.0 186.6638 930.0 180.0 C 933.3264 180.0 936.67365 180.0 940.0 180.0 C 940.0 176.6736 940.0 173.32637 940.0 170.0 C 936.6736 170.0 933.32635 170.0 930.0 170.0 C 930.0 173.3264 930.0 176.67363 930.0 180.0 C 926.6736 180.0 923.32635 180.0 920.0 180.0 C 920.0 186.66763 920.0 193.3343 920.0 200.0 Z M 980.0 110.0 C 983.3264 110.0 986.67365 110.0 990.0 110.0 C 990.0 113.32641 990.0 116.67363 990.0 120.0 C 993.3264 120.0 996.67365 120.0 1000.0 120.0 C 1000.0 123.32641 1000.0 126.67363 1000.0 130.0 C 1056.6647 130.0 1113.3406 130.0 1170.0 130.0 C 1170.0 126.67359 1170.0 123.32637 1170.0 120.0 C 1173.3264 120.0 1176.6736 120.0 1180.0 120.0 C 1180.0 116.67359 1180.0 113.32637 1180.0 110.0 C 1183.3264 110.0 1186.6736 110.0 1190.0 110.0 C 1190.0 83.32141 1190.0 56.67326 1190.0 30.0 C 1186.6736 30.0 1183.3264 30.0 1180.0 30.0 C 1180.0 26.673595 1180.0 23.326372 1180.0 20.0 C 1176.6736 20.0 1173.3264 20.0 1170.0 20.0 C 1170.0 16.673595 1170.0 13.326373 1170.0 10.0 C 1113.3214 10.0 1056.6732 10.0 1000.0 10.0 C 1000.0 13.326405 1000.0 16.673628 1000.0 20.0 C 996.6736 20.0 993.32635 20.0 990.0 20.0 C 990.0 23.326405 990.0 26.673628 990.0 30.0 C 986.6736 30.0 983.32635 30.0 980.0 30.0 C 980.0 56.66815 980.0 83.33755 980.0 110.0 Z M 990.0 100.0 C 993.3264 100.0 996.67365 100.0 1000.0 100.0 C 1000.0 103.32641 1000.0 106.67363 1000.0 110.0 C 1003.3264 110.0 1006.67365 110.0 1010.0 110.0 C 1010.0 113.32641 1010.0 116.67363 1010.0 120.0 C 1060.0 120.0 1110.0 120.0 1160.0 120.0 C 1160.0 116.67359 1160.0 113.32637 1160.0 110.0 C 1163.3264 110.0 1166.6736 110.0 1170.0 110.0 C 1170.0 106.67359 1170.0 103.32637 1170.0 100.0 C 1173.3264 100.0 1176.6736 100.0 1180.0 100.0 C 1180.0 79.99903 1180.0 60.00097 1180.0 40.0 C 1176.6736 40.0 1173.3264 40.0 1170.0 40.0 C 1170.0 36.673595 1170.0 33.326374 1170.0 30.0 C 1166.6736 30.0 1163.3264 30.0 1160.0 30.0 C 1160.0 26.673595 1160.0 23.326372 1160.0 20.0 C 1109.9861 20.0 1060.0139 20.0 1010.0 20.0 C 1010.0 23.326405 1010.0 26.673628 1010.0 30.0 C 1006.6736 30.0 1003.32635 30.0 1000.0 30.0 C 1000.0 33.326405 1000.0 36.673626 1000.0 40.0 C 996.6736 40.0 993.32635 40.0 990.0 40.0 C 990.0 60.01438 990.0 79.99606 990.0 100.0 Z M 1000.0 190.0 C 1003.3317 190.0 1006.67896 190.0 1010.0 190.0 C 1010.0 186.66827 1010.0 183.32106 1010.0 180.0 C 1006.66315 180.0 1003.32556 180.0 1000.0 180.0 C 1000.0 183.33685 1000.0 186.67445 1000.0 190.0 Z M 1010.0 60.0 C 1016.6674 60.0 1023.3345 60.0 1030.0 60.0 C 1030.0 63.326405 1030.0 66.67363 1030.0 70.0 C 1033.3264 70.0 1036.6736 70.0 1040.0 70.0 C 1040.0 66.67359 1040.0 63.326374 1040.0 60.0 C 1043.3264 60.0 1046.6736 60.0 1050.0 60.0 C 1050.0 56.673595 1050.0 53.326374 1050.0 50.0 C 1036.6696 50.0 1023.3257 50.0 1010.0 50.0 C 1010.0 53.336105 1010.0 56.673714 1010.0 60.0 Z M 1010.0 90.0 C 1023.33057 90.0 1036.68 90.0 1050.0 90.0 C 1050.0 86.67359 1050.0 83.32637 1050.0 80.0 C 1043.3308 80.0 1036.6638 80.0 1030.0 80.0 C 1030.0 76.67359 1030.0 73.32637 1030.0 70.0 C 1026.6736 70.0 1023.32635 70.0 1020.0 70.0 C 1020.0 73.32641 1020.0 76.67363 1020.0 80.0 C 1016.6639 80.0 1013.3263 80.0 1010.0 80.0 C 1010.0 83.336105 1010.0 86.67371 1010.0 90.0 Z M 1010.0 170.0 C 1016.6691 170.0 1023.3362 170.0 1030.0 170.0 C 1030.0 166.6736 1030.0 163.32637 1030.0 160.0 C 1023.3401 160.0 1016.6486 160.0 1010.0 160.0 C 1010.0 163.3361 1010.0 166.6737 1010.0 170.0 Z M 1020.0 150.0 C 1033.3359 150.0 1046.6747 150.0 1060.0 150.0 C 1060.0 146.6736 1060.0 143.32637 1060.0 140.0 C 1046.6666 140.0 1033.3228 140.0 1020.0 140.0 C 1020.0 143.3361 1020.0 146.6737 1020.0 150.0 Z M 1060.0 80.0 C 1063.3264 80.0 1066.6736 80.0 1070.0 80.0 C 1070.0 83.32641 1070.0 86.67363 1070.0 90.0 C 1073.3264 90.0 1076.6736 90.0 1080.0 90.0 C 1080.0 86.67359 1080.0 83.32637 1080.0 80.0 C 1083.3264 80.0 1086.6736 80.0 1090.0 80.0 C 1090.0 73.330864 1090.0 66.6638 1090.0 60.0 C 1086.6736 60.0 1083.3264 60.0 1080.0 60.0 C 1080.0 66.67248 1080.0 73.33955 1080.0 80.0 C 1076.6736 80.0 1073.3264 80.0 1070.0 80.0 C 1070.0 69.991646 1070.0 60.008358 1070.0 50.0 C 1066.6736 50.0 1063.3264 50.0 1060.0 50.0 C 1060.0 60.008606 1060.0 70.00134 1060.0 80.0 Z M 1090.0 90.0 C 1093.3264 90.0 1096.6736 90.0 1100.0 90.0 C 1100.0 86.67359 1100.0 83.32637 1100.0 80.0 C 1103.3264 80.0 1106.6736 80.0 1110.0 80.0 C 1110.0 69.991646 1110.0 60.008358 1110.0 50.0 C 1106.6736 50.0 1103.3264 50.0 1100.0 50.0 C 1100.0 60.008358 1100.0 69.991646 1100.0 80.0 C 1096.664 80.0 1093.3263 80.0 1090.0 80.0 C 1090.0 83.336105 1090.0 86.67371 1090.0 90.0 Z M 1120.0 90.0 C 1123.3264 90.0 1126.6736 90.0 1130.0 90.0 C 1130.0 79.991646 1130.0 70.008354 1130.0 60.0 C 1136.6692 60.0 1143.3362 60.0 1150.0 60.0 C 1150.0 56.673595 1150.0 53.326374 1150.0 50.0 C 1139.9907 50.0 1130.0018 50.0 1120.0 50.0 C 1120.0 63.334587 1120.0 76.67416 1120.0 90.0 Z M 1150.0 90.0 C 1153.3264 90.0 1156.6736 90.0 1160.0 90.0 C 1160.0 79.991646 1160.0 70.008354 1160.0 60.0 C 1156.6736 60.0 1153.3264 60.0 1150.0 60.0 C 1150.0 70.008606 1150.0 80.00134 1150.0 90.0 Z " />
</g>
</svg>
